<?xml version="1.0" standalone="no"?>
<!DOCTYPE svg PUBLIC "-//W3C//DTD SVG 20010904//EN"
 "http://www.w3.org/TR/2001/REC-SVG-20010904/DTD/svg10.dtd">
<svg version="1.0" xmlns="http://www.w3.org/2000/svg"
 width="687.000000pt" height="373.000000pt" viewBox="0 0 687.000000 373.000000"
 preserveAspectRatio="xMidYMid meet">

<g transform="translate(0.000000,373.000000) scale(0.100000,-0.100000)"
fill="#000000" stroke="none">
<path d="M2157 2475 c-307 -51 -564 -98 -572 -105 -13 -11 -15 -84 -15 -510
l0 -498 -78 40 c-69 35 -86 40 -147 40 -231 0 -395 -212 -330 -426 73 -240
377 -320 556 -145 28 27 62 74 77 106 l27 58 3 626 3 626 492 82 c271 44 502
81 512 81 20 0 20 -9 18 -433 -1 -237 -2 -440 -2 -450 -1 -15 -5 -15 -38 7
-136 90 -309 72 -424 -43 -75 -75 -102 -145 -97 -251 13 -290 365 -423 572
-217 23 24 53 65 67 92 l24 50 3 669 c2 490 -1 672 -9 682 -6 8 -28 14 -48 13
-20 0 -287 -43 -594 -94z m418 -974 c112 -51 160 -200 99 -310 -74 -133 -239
-161 -349 -60 -56 51 -75 94 -75 163 0 135 90 226 225 226 37 0 76 -8 100 -19z
m-1137 -189 c53 -24 109 -96 123 -156 22 -98 -30 -204 -124 -253 -48 -25 -151
-23 -203 4 -84 45 -128 123 -122 218 4 66 38 130 90 168 60 44 163 53 236 19z"/>
<path d="M4889 2301 c-20 -20 -29 -39 -29 -61 0 -22 9 -41 29 -61 87 -87 236
36 151 126 -19 20 -33 25 -73 25 -40 0 -53 -5 -78 -29z"/>
<path d="M3409 2290 c-23 -13 -53 -88 -89 -221 -33 -119 -119 -355 -175 -474
-18 -40 -50 -87 -74 -110 -50 -47 -52 -69 -10 -84 49 -17 226 -14 232 3 3 8
-4 44 -15 79 -19 58 -20 71 -9 107 7 24 23 53 37 67 23 23 28 24 151 21 l127
-3 22 -32 c30 -46 38 -108 20 -168 -23 -75 -14 -80 137 -80 67 1 134 4 150 8
41 11 34 41 -20 95 -40 39 -54 63 -82 142 -59 166 -191 511 -212 551 -10 21
-33 54 -50 74 -27 31 -37 35 -78 35 -25 0 -53 -5 -62 -10z m76 -257 c52 -130
85 -237 76 -246 -13 -13 -140 -21 -185 -13 -27 5 -36 12 -36 27 0 25 101 299
111 299 4 0 19 -30 34 -67z"/>
<path d="M5382 2023 c-95 -40 -144 -120 -122 -201 17 -67 66 -112 172 -162
115 -53 148 -82 148 -127 0 -40 -32 -64 -88 -65 -46 0 -75 13 -122 58 -19 18
-48 40 -64 48 -42 21 -56 6 -56 -58 0 -93 41 -122 188 -132 107 -8 175 6 233
48 49 35 69 79 69 150 0 90 -28 119 -202 202 -95 45 -118 60 -126 83 -13 38 0
67 37 83 48 19 92 5 156 -51 34 -30 63 -48 72 -45 8 3 16 6 18 6 10 0 17 73
11 106 -10 49 -52 65 -181 70 -79 3 -109 1 -143 -13z"/>
<path d="M4072 2021 c-23 -4 -47 -12 -54 -19 -11 -11 -11 -11 92 -107 48 -45
124 -148 135 -183 5 -17 -1 -33 -21 -60 -46 -61 -125 -141 -161 -163 -18 -11
-38 -30 -44 -42 -20 -37 12 -48 126 -45 l100 3 0 66 c1 51 6 72 24 97 34 49
56 57 82 30 33 -35 62 -106 56 -138 -12 -56 5 -62 151 -58 175 4 187 17 87 96
-50 39 -185 208 -185 231 0 41 81 139 168 203 79 59 68 81 -48 92 -36 4 -78 3
-95 -2 -29 -9 -30 -11 -27 -61 4 -52 -6 -78 -43 -115 -27 -26 -49 -19 -78 26
-19 30 -27 55 -27 88 0 25 -5 51 -12 58 -13 13 -152 15 -226 3z"/>
<path d="M4875 2016 c-28 -7 -56 -16 -63 -20 -23 -14 -12 -43 28 -75 l40 -32
0 -167 c0 -179 0 -176 -64 -266 -10 -14 -16 -32 -13 -40 8 -21 86 -30 211 -23
112 7 139 16 121 42 -6 8 -23 33 -40 56 -36 50 -43 111 -44 355 -1 110 -5 164
-13 172 -15 15 -97 14 -163 -2z"/>
<path d="M3250 1115 c0 -63 4 -105 10 -105 6 0 10 42 10 105 0 63 -4 105 -10
105 -6 0 -10 -42 -10 -105z"/>
<path d="M3953 1115 c0 -76 2 -94 6 -59 8 65 25 86 65 82 30 -3 31 -5 34 -58
4 -76 22 -90 22 -17 0 44 -5 62 -21 78 -20 20 -37 21 -82 3 -12 -4 -17 4 -20
38 -2 23 -4 -6 -4 -67z"/>
<path d="M5150 1210 c0 -5 5 -10 11 -10 5 0 7 5 4 10 -3 6 -8 10 -11 10 -2 0
-4 -4 -4 -10z"/>
<path d="M3031 1109 c1 -62 4 -90 8 -69 6 34 8 35 56 40 66 7 75 14 75 60 0
46 -16 58 -90 67 l-50 6 1 -104z m113 65 c39 -39 7 -84 -60 -84 l-44 0 0 50 0
50 44 0 c27 0 51 -6 60 -16z"/>
<path d="M4477 1203 c-4 -3 -7 -49 -7 -102 0 -110 17 -115 22 -6 l3 70 33 -57
c18 -32 37 -60 42 -63 5 -3 23 22 42 55 18 33 36 60 40 60 4 0 9 -35 11 -77 3
-73 3 -71 5 25 1 56 0 102 -2 102 -2 0 -22 -31 -45 -70 -23 -38 -45 -70 -49
-70 -4 0 -25 32 -48 70 -22 39 -43 67 -47 63z"/>
<path d="M3560 1176 c0 -8 -6 -17 -12 -20 -10 -5 -10 -7 0 -12 6 -3 12 -22 12
-42 0 -20 3 -47 6 -59 7 -25 37 -39 56 -27 9 6 5 10 -12 14 -22 5 -25 12 -28
58 -3 47 -1 52 17 52 12 0 21 5 21 10 0 6 -9 10 -20 10 -11 0 -20 7 -20 15 0
8 -4 15 -10 15 -5 0 -10 -6 -10 -14z"/>
<path d="M3811 1178 c0 -10 -9 -18 -18 -18 -17 -1 -17 -1 -1 -13 11 -9 18 -31
20 -67 3 -58 21 -79 54 -65 17 8 16 9 -7 12 -29 4 -39 25 -39 81 0 28 3 32 25
32 14 0 25 5 25 10 0 6 -11 10 -24 10 -15 0 -26 7 -29 18 -4 16 -5 16 -6 0z"/>
<path d="M3365 1135 c-14 -13 -25 -36 -25 -50 0 -33 41 -75 73 -75 41 0 71 32
71 75 0 69 -71 99 -119 50z m99 -28 c15 -42 -6 -77 -47 -77 -40 0 -57 15 -57
50 0 68 82 89 104 27z"/>
<path d="M4175 1135 c-32 -31 -32 -69 1 -102 20 -20 31 -24 57 -19 48 10 56
25 10 19 -29 -4 -44 -1 -56 12 -28 28 -20 35 43 35 51 0 60 3 60 18 0 23 -10
37 -37 51 -33 17 -51 14 -78 -14z m95 -25 c10 -19 7 -20 -45 -20 -48 0 -56 3
-53 17 2 10 14 23 27 30 28 14 55 4 71 -27z"/>
<path d="M4760 1107 c0 -81 44 -119 97 -82 20 14 22 13 26 -2 3 -10 5 18 4 62
0 74 0 76 -6 25 -8 -68 -15 -80 -50 -80 -39 0 -51 17 -51 77 0 29 -4 53 -10
53 -5 0 -10 -24 -10 -53z"/>
<path d="M4986 1147 c-35 -25 -12 -59 47 -72 19 -4 27 -12 27 -26 0 -19 -5
-21 -45 -17 -51 4 -61 -7 -15 -17 82 -18 111 53 29 75 -67 18 -62 54 8 52 29
0 33 2 18 8 -29 13 -49 12 -69 -3z"/>
<path d="M5153 1085 c0 -44 2 -61 4 -37 2 23 2 59 0 80 -2 20 -4 1 -4 -43z"/>
<path d="M5267 1139 c-23 -17 -27 -28 -25 -57 4 -47 46 -80 85 -66 14 5 29 16
31 24 4 13 3 13 -11 2 -26 -22 -70 -11 -85 21 -12 24 -11 32 3 54 15 22 22 25
57 20 43 -6 41 7 -2 18 -18 4 -34 0 -53 -16z"/>
</g>
</svg>
